<svg width="180" height="200" viewBox="0 0 180 200" fill="none" xmlns="http://www.w3.org/2000/svg">
<path d="M55.66 56.5089C55.66 61.3502 51.9384 65.2747 47.3472 65.2747C42.7561 65.2747 39.0395 61.3502 39.0395 56.5089C39.0395 51.6727 42.7561 47.7483 47.3472 47.7483C51.9384 47.7483 55.66 51.6727 55.66 56.5089Z" fill="#293546"/>
<path d="M49.5087 108.407L48.1224 92.1066L47.064 58.1384H43.9784C43.7747 62.5135 43.1884 82.9531 42.6915 88.3132L41.4295 109.586C41.4295 109.586 41.0817 115.082 44.361 115.926C47.6404 116.764 50.2093 113.374 49.5087 108.407Z" fill="#EC6F58"/>
<path d="M12.0343 192.015L13.8976 192.581C13.8976 192.581 18.0266 181.269 19.4526 176.815C20.7197 172.838 23.532 168.505 22.9805 161.641C30.0063 163.915 45.5634 166.519 45.5634 166.519C46.6317 166.587 48.7484 168.175 48.7484 168.175L51.3868 153.347C44.0927 152.86 30.8013 153.221 19.7806 153.352C19.7806 153.352 17.5446 153.101 16.4118 155.354C16.4118 155.354 14.464 160.876 14.0715 168.599C13.9274 171.533 12.0343 192.015 12.0343 192.015Z" fill="#F17E65"/>
<path d="M47.7298 159.032L48.7633 153.237L48.6441 153.074C44.525 152.812 39.3575 152.886 33.6633 153.038C31.8795 155.872 29.9417 159.959 30.3988 163.789C36.739 165.167 42.9648 166.257 42.9648 166.257C43.3176 166.283 43.7846 166.467 44.2567 166.708L47.7298 159.032Z" fill="#151627"/>
<path d="M38.9451 151.655C38.9749 152.341 39.0096 152.943 39.0544 153.441H39.745C40.1574 153.006 40.7288 152.702 41.4543 152.65C44.7535 152.399 47.6652 150.235 50.6067 148.841C52.947 147.73 55.481 147.201 57.7766 146.038C55.4065 142.548 51.1781 140.133 53.3544 133.725C59.9778 114.26 53.9805 109.465 52.8277 107.878C52.8277 107.878 53.0712 107.951 52.4998 107.747L52.7433 107.731C50.0751 104.881 49.6279 100.92 49.8067 97.7969C50.403 96.707 54.0103 89.7698 51.3868 84.9704C49.6527 81.7952 47.0391 80.9935 44.7784 81.004C42.3387 81.0878 40.9276 81.4127 39.119 83.0894C39.119 83.0894 36.0781 85.3948 36.7687 90.8387C36.7687 90.8387 37.4196 91.8709 35.7849 94.7212C35.7849 94.7212 35.1738 95.5858 35.5564 95.9421C35.8744 96.2302 36.7091 96.9376 36.7091 96.9376C36.7091 96.9376 36.6097 97.4458 36.7091 97.9017C36.7091 97.9017 36.6445 98.4099 36.9675 98.8081C37.2954 99.2011 37.3401 100.401 37.4793 101.627C37.4793 101.627 37.6979 102.617 38.7711 102.602C39.4668 102.591 39.8096 102.623 41.7574 102.198C41.7574 102.198 42.5573 102.02 43.4616 101.774C43.2927 103.45 43.0095 105.138 42.771 106.4C42.766 106.4 33.1018 119.567 32.6795 121.611C32.277 123.576 32.2621 126.232 36.406 128.674C36.406 128.674 38.2792 131.88 38.001 135.999C37.847 138.346 38.9053 141.558 38.8805 146.059C38.796 148.092 38.8258 149.952 38.9451 151.655Z" fill="#F79375"/>
<path d="M44.4604 88.6904C44.4604 88.6904 44.1027 99.1591 48.8826 103.89L48.0926 92.1014L44.4604 88.6904Z" fill="#DC3A34"/>
<path d="M36.5999 85.3948C36.5999 85.3948 37.375 87.1396 48.8478 94.0034C52.6936 96.3088 52.485 108.894 53.4787 110.87C54.4725 112.845 55.65 126.227 53.8365 132.273C53.8365 132.273 62.5218 124.362 57.1208 108.926C52.3607 95.3447 54.0352 94.585 54.1445 90.9802C54.2489 87.3753 53.4588 80.4853 50.4825 80.3648C50.4825 80.3648 37.2657 78.1851 36.5999 85.3948Z" fill="#DC3A34"/>
<path d="M73.4431 182.369C69.5029 182.956 62.1541 182.165 59.1381 184.706C58.9791 179.126 58.989 166.42 58.7157 163.297L48.5198 166.834C48.9869 174.2 50.2887 180.174 52.2812 189.605C52.2812 189.605 53.0464 192.738 54.5469 192.79C61.6026 193.031 88.1556 182.51 88.1556 182.51L88.6176 180.2C88.6176 180.2 78.8143 181.573 73.4431 182.369Z" fill="#F79375"/>
<path d="M54.7606 129.124C58.994 113.484 53.8811 109.329 52.8278 107.878C52.8278 107.878 53.0712 107.951 52.4998 107.747L52.7433 107.731C52.2166 107.165 51.7793 106.557 51.4117 105.918C50.408 105.95 49.2801 106.217 48.0925 106.908C43.879 109.355 46.6566 116.555 37.8172 113.332C35.3676 116.853 32.8881 120.6 32.6795 121.611C32.277 123.576 32.2621 126.232 36.406 128.674C36.406 128.674 36.7986 129.35 37.1961 130.471C39.7798 130.974 46.6118 131.849 54.7606 129.124Z" fill="#42B03B"/>
<path d="M60.0027 166.907C59.7542 165.969 60.271 163.905 60.4151 163.344C61.4535 161.384 61.8858 159.456 61.9454 157.649C61.9305 157.041 61.9107 156.433 61.8858 155.825C61.4088 150.963 58.5468 147.379 58.5468 147.379C58.1145 146.457 57.5183 145.629 56.8674 144.827C52.0676 148.464 42.4381 151.838 39.0146 152.975C39.0445 153.394 39.0842 153.766 39.124 154.065L39.1935 154.075C40.9028 166.708 45.1411 167.169 45.1411 167.169L46.9845 167.834C47.6702 170.208 48.5199 172.822 49.459 175.61C54.8799 175.861 59.0288 173.886 60.8622 172.802C60.3852 169.359 60.0027 166.907 60.0027 166.907Z" fill="#222139"/>
<path d="M86.9382 179.948C86.9879 180.981 86.7196 181.452 86.7196 181.452C86.4513 181.384 85.7954 181.148 85.5966 181.274C84.8116 181.793 85.0004 183.826 85.0004 183.826C85.3581 184.135 86.173 184.077 86.5755 184.942C87.8972 187.776 89.6164 191.381 90.2772 192.801C90.8735 194.059 91.5343 194.467 92.1405 194.541C92.1405 194.541 92.8013 194.792 92.9603 194.158C93.1144 193.524 92.3641 179.938 92.3641 179.938C92.3641 179.938 91.8175 178.979 86.9382 179.948Z" fill="#41A0D6"/>
<path d="M86.8935 185.617C86.8935 185.617 87.0922 183.925 88.4438 183.511C88.4438 183.511 89.0152 183.359 88.9257 183.878C88.9257 183.878 87.6835 184.795 87.1867 186.257C87.1867 186.257 86.8985 186.241 86.8935 185.617Z" fill="white"/>
<path d="M87.604 187.069C87.604 187.069 87.8326 185.135 89.2288 184.816C89.2288 184.816 89.5766 184.68 89.6164 185.115C89.6164 185.115 88.0463 186.068 87.8922 187.781C87.8922 187.781 87.5146 187.499 87.604 187.069Z" fill="white"/>
<path d="M88.1307 188.132C88.1307 188.132 88.3593 186.199 89.7605 185.879C89.7605 185.879 90.1033 185.738 90.1481 186.178C90.1481 186.178 88.573 187.126 88.4189 188.845C88.4189 188.845 88.0463 188.562 88.1307 188.132Z" fill="white"/>
<path d="M88.6326 189.269C88.6326 189.269 88.8611 187.336 90.2623 187.016C90.2623 187.016 90.6052 186.875 90.6499 187.315C90.6499 187.315 89.0748 188.263 88.9208 189.977C88.9208 189.977 88.5481 189.694 88.6326 189.269Z" fill="white"/>
<path d="M86.7196 181.452C86.7196 181.452 87.1469 181.651 87.2264 181.536C87.3109 181.421 87.7282 180.085 87.6388 179.828C87.5444 179.571 86.9829 179.697 86.8538 179.917C86.8538 179.917 86.7494 181.305 86.7196 181.452Z" fill="white"/>
<path d="M92.2647 194.603C92.2647 194.603 92.4684 194.97 92.8014 194.954C93.1343 194.933 93.5765 194.719 93.5765 194.719L92.851 179.891C92.851 179.891 92.0511 179.288 91.2759 179.555C90.5008 179.817 90.8288 181.462 91.6685 182.951C91.6685 182.951 92.2796 192.707 92.2647 194.603Z" fill="white"/>
<path d="M14.5137 191.716C13.5299 191.716 13.0976 191.413 13.0976 191.413C13.1722 191.135 13.4355 190.454 13.3212 190.239C12.874 189.385 10.9362 189.479 10.9362 189.479C10.6282 189.841 10.6381 190.7 9.79839 191.077C7.0457 192.329 3.5477 193.949 2.16639 194.583C0.944082 195.138 0.526707 195.819 0.417395 196.448C0.417395 196.448 0.154053 197.134 0.745333 197.333C1.33661 197.527 14.2404 197.433 14.2404 197.433C14.2404 197.433 15.1795 196.909 14.5137 191.716Z" fill="#41A0D6"/>
<path d="M9.14746 191.386C9.14746 191.386 10.7375 191.68 11.0604 193.126C11.0604 193.126 11.1747 193.734 10.6878 193.608C10.6878 193.608 9.88283 192.261 8.52637 191.664C8.52637 191.664 8.55121 191.355 9.14746 191.386Z" fill="white"/>
<path d="M7.73134 192.057C7.73134 192.057 9.5499 192.392 9.78344 193.886C9.78344 193.886 9.89772 194.252 9.48034 194.279C9.48034 194.279 8.6605 192.57 7.04565 192.319C7.04565 192.319 7.33384 191.947 7.73134 192.057Z" fill="white"/>
<path d="M6.69786 192.56C6.69786 192.56 8.51643 192.895 8.74499 194.389C8.74499 194.389 8.86424 194.755 8.44686 194.782C8.44686 194.782 7.62702 193.079 6.0072 192.822C6.0072 192.822 6.30036 192.445 6.69786 192.56Z" fill="white"/>
<path d="M5.59978 193.031C5.59978 193.031 7.41834 193.367 7.6469 194.86C7.6469 194.86 7.76118 195.227 7.34381 195.248C7.34381 195.248 6.52396 193.545 4.90912 193.293C4.90912 193.293 5.20227 192.916 5.59978 193.031Z" fill="white"/>
<path d="M13.0976 191.413C13.0976 191.413 12.8889 191.853 12.9933 191.947C13.0976 192.036 14.3398 192.544 14.5882 192.46C14.8317 192.382 14.7472 191.779 14.5435 191.633C14.5435 191.633 13.2318 191.455 13.0976 191.413Z" fill="white"/>
<path d="M0.362719 196.574C0.362719 196.574 0 196.778 0 197.124C0 197.475 0.178875 197.957 0.178875 197.957L14.2603 197.952C14.2603 197.952 14.8764 197.139 14.6628 196.312C14.4491 195.484 12.874 195.74 11.4232 196.547C11.4232 196.547 2.15147 196.689 0.362719 196.574Z" fill="white"/>
<path d="M48.0925 97.1052C47.2031 100.165 44.7237 101.36 43.3921 101.795L43.4617 101.774C43.3325 103.052 43.1387 104.341 42.9499 105.436C48.3658 104.011 48.0925 97.1052 48.0925 97.1052Z" fill="#F17E65"/>
<path d="M54.0302 107.783L52.6439 91.4831L51.5856 57.5149H48.495C48.2963 61.8899 47.705 82.3348 47.2131 87.6949L45.946 108.968C45.946 108.968 45.6032 114.459 48.8826 115.302C52.162 116.146 54.7258 112.756 54.0302 107.783Z" fill="#F79375"/>
<path d="M58.353 56.5089C58.353 61.3502 54.6264 65.2747 50.0403 65.2747C45.4491 65.2747 41.7275 61.3502 41.7275 56.5089C41.7275 51.6727 45.4491 47.7483 50.0403 47.7483C54.6264 47.7483 58.353 51.6727 58.353 56.5089Z" fill="#5F84CB"/>
<path d="M56.8624 56.5089C56.8624 60.4805 53.8066 63.6976 50.0403 63.6976C46.274 63.6976 43.2231 60.4805 43.2231 56.5089C43.2231 52.5373 46.274 49.3149 50.0403 49.3149C53.8066 49.3149 56.8624 52.5373 56.8624 56.5089Z" fill="#293546"/>
<path d="M53.26 56.5089C53.26 58.3847 51.8191 59.9094 50.0403 59.9094C48.2615 59.9094 46.8156 58.3847 46.8156 56.5089C46.8156 54.6331 48.2615 53.1084 50.0403 53.1084C51.8191 53.1084 53.26 54.6331 53.26 56.5089Z" fill="#5F84CB"/>
<path d="M162.677 18.6163H60.8275V17.0287H162.677V18.6163Z" fill="#454C63"/>
<path d="M102.54 59.8517C102.54 59.8517 100.861 56.7708 95.8521 55.6391C95.8521 55.6391 96.1801 51.6465 87.3506 44.1068C87.3506 44.1068 86.8935 36.9809 85.8103 21.5556L83.2961 21.257C83.2961 21.257 80.8664 41.2302 81.1347 43.9181C81.1347 43.9181 80.9707 46.1921 81.8055 46.9466C81.8055 46.9466 83.2713 50.9916 84.106 53.0298C84.9408 55.068 90.4511 60.1504 90.4511 60.1504C90.4511 60.1504 94.8634 73.6266 99.1613 74.5068L102.54 59.8517Z" fill="#F5866C"/>
<path d="M83.2017 21.5556C83.2017 21.5556 82.3123 20.974 82.3421 19.4808C82.3769 17.9875 82.9582 15.8445 83.2017 15.7187C83.4501 15.5877 83.9719 15.6821 84.2799 15.8759C84.2799 15.8759 85.2637 15.4882 85.696 16.0122C85.696 16.0122 86.342 15.4568 86.9581 16.1065C86.9581 16.1065 87.5444 15.9074 87.8475 16.3632C87.8475 16.3632 87.7879 18.5376 87.7283 18.962C87.7283 18.962 88.2798 18.8939 88.404 19.2869C88.5282 19.6746 88.4338 20.1305 88.1556 20.2615C87.8823 20.3872 86.9283 21.7495 85.1147 21.5556H83.2017Z" fill="#F5866C"/>
<path d="M121.546 59.8517C121.546 59.8517 123.22 56.7708 128.234 55.6391C128.234 55.6391 127.906 51.6465 136.73 44.1068C136.73 44.1068 137.192 36.9809 138.27 21.5556L140.785 21.257C140.785 21.257 143.214 41.2302 142.951 43.9181C142.951 43.9181 143.11 46.1921 142.275 46.9466C142.275 46.9466 140.809 50.9916 139.98 53.0298C139.145 55.068 133.63 60.1504 133.63 60.1504C133.63 60.1504 129.217 73.6266 124.924 74.5068L121.546 59.8517Z" fill="#F5866C"/>
<path d="M140.879 21.5556C140.879 21.5556 141.768 20.974 141.739 19.4808C141.709 17.9875 141.122 15.8445 140.879 15.7187C140.631 15.5877 140.109 15.6821 139.801 15.8759C139.801 15.8759 138.817 15.4882 138.385 16.0122C138.385 16.0122 137.739 15.4568 137.123 16.1065C137.123 16.1065 136.536 15.9074 136.233 16.3632C136.233 16.3632 136.293 18.5376 136.357 18.962C136.357 18.962 135.801 18.8939 135.677 19.2869C135.557 19.6746 135.647 20.1305 135.925 20.2615C136.203 20.3872 137.152 21.7495 138.971 21.5556H140.879Z" fill="#F5866C"/>
<path d="M126.499 147.746C125.898 139.017 129.212 126.824 124.323 105.253C124.298 101.92 123.379 99.5677 122.683 94.2338C121.893 88.2083 125.004 78.7037 125.014 76.9275C125.044 68.628 123.295 60.5852 123.295 60.5852C121.993 59.3801 111.767 57.4258 111.767 57.4258C111.767 57.4258 100.816 59.3801 99.5141 60.5852C99.5141 60.5852 97.7999 73.3384 98.6595 76.9275C99.0669 78.6409 101.685 88.5594 100.622 94.4644C99.6185 100.055 98.8781 102.418 98.9974 106.096C94.3814 127.138 97.6012 139.132 97.0099 147.746C97.0099 147.746 94.5851 157.837 95.0373 170.098C95.0373 170.098 95.9813 182.201 95.6733 185.062L98.3117 188.274C101.02 175.447 106.167 166.11 103.981 151.801C103.981 151.801 104.458 147.463 106.217 142.747C108.403 136.879 109.715 127.4 110.43 121.244L113.074 121.239C113.794 127.39 115.101 136.874 117.292 142.747C119.046 147.463 119.528 151.801 119.528 151.801C117.342 166.11 122.49 175.447 125.193 188.274L127.836 185.062C127.528 182.201 128.472 170.098 128.472 170.098C128.919 157.837 126.499 147.746 126.499 147.746Z" fill="#F5866C"/>
<path d="M98.8234 189.029C98.5452 189.814 99.7178 192.455 98.9427 194.279C98.262 195.882 95.6633 198.276 95.6633 198.276C91.5492 200.037 88.5033 198.114 88.1506 197.045C87.7928 195.976 88.4437 193.901 90.3567 192.141C92.2597 190.38 94.0534 187.111 94.0534 187.111V185.79C94.1727 184.722 95.6633 184.659 95.6633 184.659C96.3639 184.91 96.9105 184.968 97.3328 184.921C97.3328 184.921 97.9291 185.13 97.5713 186.828C97.5713 186.828 98.2868 186.828 98.7936 186.105C98.7936 186.105 99.7178 186.514 98.8234 189.029Z" fill="#526E6F"/>
<path d="M88.9108 193.87C88.9108 193.87 88.3245 196.275 88.9108 196.793C88.9108 196.793 91.6387 199.104 94.9777 197.029C97.8695 195.237 99.1067 193.445 99.0322 191.072C99.0322 191.072 99.3651 192.644 99.211 193.823C99.062 195.001 95.1714 201.179 90.4313 199.293C85.6911 197.406 88.9108 193.87 88.9108 193.87Z" fill="white"/>
<path d="M90.4958 192.01C90.4958 192.01 91.6387 191.873 92.4138 192.266C93.1889 192.659 95.1267 194.106 95.3801 194.074C95.6335 194.043 95.8969 193.32 95.4646 192.911C95.0373 192.502 93.4026 191.239 91.2412 191.219C91.2412 191.219 90.4412 191.339 90.4958 192.01Z" fill="white"/>
<path d="M91.6287 190.689C91.6287 190.689 92.7715 190.553 93.5467 190.946C94.3168 191.339 96.2546 192.785 96.513 192.754C96.7664 192.722 97.0347 191.999 96.6025 191.591C96.1702 191.182 94.5355 189.919 92.3691 189.898C92.3691 189.898 91.5741 190.019 91.6287 190.689Z" fill="white"/>
<path d="M92.6722 189.332C92.6722 189.332 93.815 189.201 94.5901 189.594C95.3652 189.987 97.303 191.433 97.5565 191.402C97.8099 191.371 98.0732 190.648 97.6459 190.239C97.2136 189.83 95.5839 188.562 93.4175 188.546C93.4175 188.546 92.6175 188.667 92.6722 189.332Z" fill="white"/>
<path d="M124.686 189.029C124.964 189.814 123.791 192.455 124.567 194.279C125.247 195.882 127.846 198.276 127.846 198.276C131.955 200.037 135.001 198.114 135.359 197.045C135.716 195.976 135.061 193.901 133.153 192.141C131.245 190.38 129.456 187.111 129.456 187.111V185.79C129.337 184.722 127.846 184.659 127.846 184.659C127.145 184.91 126.594 184.968 126.171 184.921C126.171 184.921 125.58 185.13 125.938 186.828C125.938 186.828 125.222 186.828 124.716 186.105C124.716 186.105 123.791 186.514 124.686 189.029Z" fill="#526E6F"/>
<path d="M134.599 193.87C134.599 193.87 135.18 196.275 134.599 196.793C134.599 196.793 131.871 199.104 128.527 197.029C125.64 195.237 124.403 193.445 124.472 191.072C124.472 191.072 124.144 192.644 124.293 193.823C124.447 195.001 128.338 201.179 133.078 199.293C137.818 197.406 134.599 193.87 134.599 193.87Z" fill="white"/>
<path d="M133.013 192.01C133.013 192.01 131.871 191.873 131.096 192.266C130.32 192.659 128.383 194.106 128.129 194.074C127.876 194.043 127.607 193.32 128.04 192.911C128.472 192.502 130.102 191.239 132.268 191.219C132.268 191.219 133.068 191.339 133.013 192.01Z" fill="white"/>
<path d="M131.881 190.689C131.881 190.689 130.738 190.553 129.963 190.946C129.188 191.339 127.25 192.785 126.996 192.754C126.743 192.722 126.475 191.999 126.907 191.591C127.339 191.182 128.969 189.919 131.135 189.898C131.135 189.898 131.93 190.019 131.881 190.689Z" fill="white"/>
<path d="M130.837 189.332C130.837 189.332 129.694 189.201 128.919 189.594C128.144 189.987 126.206 191.433 125.953 191.402C125.699 191.371 125.431 190.648 125.863 190.239C126.296 189.83 127.925 188.562 130.092 188.546C130.092 188.546 130.892 188.667 130.837 189.332Z" fill="white"/>
<path d="M116.835 58.4947C116.438 58.3847 116.199 58.327 116.199 58.327C114.137 54.0253 114.505 44.5103 114.505 44.5103C114.505 44.5103 107.747 48.8539 107.693 49.8441C107.459 53.821 106.982 57.5044 106.381 58.851C106.316 58.9977 106.058 59.1549 105.68 59.3225V67.774L116.835 65.9873V58.4947Z" fill="#F5866C"/>
<path d="M115.687 57.0224C115.007 54.8847 114.704 52.0763 114.569 49.6608L108.85 48.5343C108.17 49.1054 107.703 49.5927 107.693 49.8442C107.598 51.4004 107.474 52.9094 107.315 54.2507C108.86 55.7021 112.622 58.7201 115.687 57.0224Z" fill="#D26758"/>
<path d="M117.422 42.8702C117.501 40.46 117.387 38.6052 117.387 38.6052C117.178 34.8065 114.102 34.0992 111.042 34.1883C107.986 34.0992 104.905 34.8065 104.697 38.6052C104.697 38.6052 104.582 40.46 104.662 42.8702C102.878 41.4451 102.153 43.8815 102.734 45.642C103.241 47.151 104.592 47.2453 105.029 47.2348C105.084 47.5806 105.139 47.9264 105.203 48.2618C105.7 50.8292 108.637 54.041 110.267 54.7536C110.267 54.7536 110.46 54.8636 111.042 54.8584C111.623 54.8636 111.822 54.7536 111.822 54.7536C113.447 54.041 116.388 50.8292 116.88 48.2618C116.945 47.9264 117.004 47.5806 117.054 47.2348C117.491 47.2453 118.848 47.151 119.349 45.642C119.931 43.8815 119.205 41.4451 117.422 42.8702Z" fill="#F79375"/>
<path d="M117.6 42.6136C117.6 42.6136 117.049 44.5417 116.631 43.7087C116.308 43.0485 115.836 37.6307 115.836 37.6307C111.489 39.1502 105.72 37.6727 105.72 37.6727C105.208 41.6181 105.288 43.4519 105.02 43.4938C104.751 43.5253 104.1 42.5559 104.1 42.5559C104.1 42.5559 102.868 36.5985 103.444 34.6966C103.802 33.5177 105.551 32.6741 106.54 32.6269C106.54 32.6269 106.555 31.5371 107.946 31.0655C109.327 30.594 116.254 29.698 116.835 30.594C117.417 31.4899 119.548 31.6366 117.6 42.6136Z" fill="#371D15"/>
<path d="M123.886 101.208C124.139 102.581 124.313 103.828 124.323 105.253C126.966 116.906 127.21 125.813 126.976 132.928C124.427 133.798 120.07 135.145 115.384 135.91C114.296 130.911 113.556 125.336 113.074 121.239L110.43 121.244C109.953 125.341 109.213 130.911 108.125 135.91C103.439 135.145 99.0769 133.798 96.5329 132.928C96.2994 125.991 96.5329 117.335 98.9974 106.096C98.9378 104.32 99.0819 102.853 99.3601 101.176C99.3601 101.176 109.223 103.246 123.886 101.208Z" fill="#1C243E"/>
<path d="M111.752 66.1865C104.786 66.2546 104.582 58.9087 104.582 58.9087C102.297 59.3383 102.823 58.8511 102.297 59.3383C102.297 59.3383 103.097 63.5614 98.6595 76.9276C98.103 78.5938 101.685 88.5595 100.622 94.4645C100.051 97.6502 99.5638 99.7879 99.2756 101.716C99.2756 101.716 112.383 104.86 123.975 101.716C123.637 99.7408 123.116 97.5716 122.683 94.234C121.893 88.2084 125.918 78.4261 125.014 76.9276C121.342 70.8549 120.562 59.2859 120.562 59.2859C120.005 58.7725 120.562 59.2859 118.226 58.8406C118.226 58.8406 118.052 66.1236 111.752 66.1865Z" fill="#526E6F"/>
<path d="M64.1664 34.8956C64.1664 35.3096 63.8484 35.6449 63.4509 35.6449H58.2039C57.8064 35.6449 57.4884 35.3096 57.4884 34.8956V0.7545C57.4884 0.335333 57.8064 0 58.2039 0H63.4509C63.8484 0 64.1664 0.335333 64.1664 0.7545V34.8956Z" fill="#454C63"/>
<path d="M57.4884 31.4165C57.4884 31.7518 57.2301 32.019 56.917 32.019H52.7383C52.4253 32.019 52.1669 31.7518 52.1669 31.4165V4.22828C52.1669 3.89819 52.4253 3.62573 52.7383 3.62573H56.917C57.2301 3.62573 57.4884 3.89819 57.4884 4.22828V31.4165Z" fill="#454C63"/>
<path d="M52.1669 29.2526C52.1669 29.5355 51.9533 29.7608 51.6899 29.7608H48.177C47.9137 29.7608 47.6951 29.5355 47.6951 29.2526V6.39227C47.6951 6.11458 47.9137 5.88403 48.177 5.88403H51.6899C51.9533 5.88403 52.1669 6.11458 52.1669 6.39227V29.2526Z" fill="#454C63"/>
<path d="M162.548 34.8956C162.548 35.3096 162.866 35.6449 163.263 35.6449H168.51C168.908 35.6449 169.226 35.3096 169.226 34.8956V0.7545C169.226 0.335333 168.908 0 168.51 0H163.263C162.866 0 162.548 0.335333 162.548 0.7545V34.8956Z" fill="#454C63"/>
<path d="M169.226 31.4165C169.226 31.7518 169.484 32.019 169.797 32.019H173.976C174.294 32.019 174.547 31.7518 174.547 31.4165V4.22828C174.547 3.89819 174.294 3.62573 173.976 3.62573H169.797C169.484 3.62573 169.226 3.89819 169.226 4.22828V31.4165Z" fill="#454C63"/>
<path d="M174.547 29.2526C174.547 29.5355 174.761 29.7608 175.024 29.7608H178.537C178.8 29.7608 179.019 29.5355 179.019 29.2526V6.39227C179.019 6.11458 178.8 5.88403 178.537 5.88403H175.024C174.761 5.88403 174.547 6.11458 174.547 6.39227V29.2526Z" fill="#454C63"/>
</svg>