<svg width="199" height="62" viewBox="0 0 199 62" fill="none" xmlns="http://www.w3.org/2000/svg">
<path d="M83.5823 0C83.6586 0.182406 83.7754 0.344292 83.8336 0.535249C83.9371 0.8499 83.3438 2.43798 85.2667 3.84308C86.3942 4.65251 87.4133 5.61698 88.4132 6.59399C88.6394 6.80604 88.8081 7.0825 88.918 7.38005C89.1538 8.04242 88.9196 11.5156 87.7116 14.4175C87.1028 15.915 86.6225 17.4711 86.2752 19.0603C86.201 19.4115 86.1103 19.7107 86.2282 20.5475C86.9358 25.4092 85.056 31.7254 85.5614 35.2499C86.7182 37.0129 84.984 44.9339 84.126 46.2187C83.4553 47.2015 86.7182 38.7755 83.4186 34.6629C85.6183 37.0129 84.8532 37.2434 84.8682 38.1612C84.8522 39.1296 85.0576 39.0054 85.056 40.4606C85.0928 42.0327 85.8873 43.0246 85.2502 45.8906C85.0138 46.8585 84.4424 47.2786 83.586 46.8044C83.9504 45.4432 84.2962 44.591 84.126 43.1066C83.9344 41.3795 83.2691 40.1796 82.7387 37.7103C80.7479 28.3557 79.3324 26.4113 80.9603 21.6739C82.6442 16.7552 78.2834 13.4 78 7.62516C78.0118 7.20791 78.261 6.708 78.5688 6.44579C81.671 3.70456 82.7547 4.28085 83.2675 0.644693C83.316 0.403004 83.4777 0.214898 83.5823 0ZM81.5654 5.35135C79.8216 7.02892 79.6061 7.30766 79.6674 7.67817C80.3291 11.2539 80.3301 12.1631 82.2201 13.2222C81.8252 10.7956 81.369 9.60997 81.941 7.84462C82.347 6.59514 82.9201 6.49424 83.6794 6.51875C84.5491 6.55295 84.9423 6.72681 85.2828 7.52541C86.0335 9.35232 85.5437 10.7836 85.1398 13.0153C85.2134 13.0426 85.2854 13.0757 85.3591 13.1031C87.2703 11.7019 87.448 10.0426 87.7222 7.52769C87.7356 7.23242 87.7158 7.30196 83.5865 3.52045C82.91 4.12752 82.2217 4.71977 81.5654 5.35135ZM84.5315 26.9762C84.5315 28.9131 84.5315 30.8501 84.5315 32.7864C83.9685 33.4879 82.1736 31.737 83.9685 31.1379C82.2718 30.0149 83.3042 32.3123 84.5315 26.9762Z" fill="black"/>
<path d="M3.06 3.62H31.86V9.2H20.22V47H14.4V9.2H3.06V3.62ZM52.7419 3.62C55.6219 3.62 58.2219 4.14 60.5419 5.18C62.8619 6.18 64.7019 7.7 66.0619 9.74C67.4219 11.74 68.1019 14.18 68.1019 17.06C68.1019 19.54 67.5419 21.94 66.4219 24.26C65.3419 26.58 63.5019 28.34 60.9019 29.54L71.8219 47H65.0419L54.7819 30.98C54.3419 31.02 53.8819 31.04 53.4019 31.04H46.9819V47H41.1619V3.62H52.7419ZM53.2819 25.4C55.6019 25.4 57.3819 24.98 58.6219 24.14C59.9019 23.26 60.8019 22.2 61.3219 20.96C61.8419 19.68 62.1019 18.46 62.1019 17.3C62.1019 16.14 61.8219 14.94 61.2619 13.7C60.7019 12.46 59.8019 11.4 58.5619 10.52C57.3619 9.64 55.7419 9.2 53.7019 9.2H46.9819V25.4H53.2819ZM99.7556 47V2.24H99.8156L121.176 32.54L142.836 2.24H142.896V47H137.136V18.98L121.176 41.54H121.056L105.396 19.76V47H99.7556ZM155.361 3.62H183.561V9.2H161.181V22.4H181.161V27.98H161.181V41.36H184.401V47H155.361V3.62ZM190.36 43.82C190.36 42.9 190.68 42.14 191.32 41.54C192 40.9 192.74 40.58 193.54 40.58C194.26 40.58 194.96 40.9 195.64 41.54C196.32 42.14 196.66 42.9 196.66 43.82C196.66 44.78 196.32 45.56 195.64 46.16C194.96 46.72 194.26 47 193.54 47C192.74 47 192 46.72 191.32 46.16C190.68 45.56 190.36 44.78 190.36 43.82Z" fill="black"/>
</svg>